# xmcd
#
# Track frame offsets: 
#        182
#        14335
#        27937
#        45557
#        63335
#        78135
#        93952
#        113002
#        129490
#        146787
#        160535
#        171332
#
# Disc length: 2438 seconds
#
# Revision: 0
# Processed by: cddbd v1.4PL0 Copyright (c) Steve Scherf et al.
# Submitted via: ExactAudioCopy v0.90a11
#
DISCID=8f09840c
DTITLE=Various Artist - Classic Country Duets
DYEAR=1900
DGENRE=
TTITLE0=All Night Long
TTITLE1=POrice I Pay
TTITLE2=Too Much is Not Enough
TTITLE3=Meet Me in Montana
TTITLE4=I forgot More Than You'll Ever Know
TTITLE5=Tie a Yellow Ribbon 'Round the Old Oak Tree
TTITLE6=While the Feeling's Good
TTITLE7=Part Me (Haven't We Loved Somewhere Before)
TTITLE8=All For the Love of Sunshine
TTITLE9=(Since You've) Gone
TTITLE10=It's Only Make Believe
TTITLE11=Oklahoma Hills
EXTD=
EXTT0=
EXTT1=
EXTT2=
EXTT3=
EXTT4=
EXTT5=
EXTT6=
EXTT7=
EXTT8=
EXTT9=
EXTT10=
EXTT11=
PLAYORDER=
